<?xml version="1.0" encoding="iso-8859-1"?>
<!-- Generator: Adobe Illustrator 19.0.0, SVG Export Plug-In . SVG Version: 6.00 Build 0)  -->
<svg version="1.1" id="Capa_1" xmlns="http://www.w3.org/2000/svg" xmlns:xlink="http://www.w3.org/1999/xlink" x="0px" y="0px"
	 viewBox="0 0 512.001 512.001" style="enable-background:new 0 0 512.001 512.001;" xml:space="preserve">
<path style="fill:#A37B60;" d="M295.31,467.002h-63.37c-6.01-17.17-10.55-34.22-13.85-50.98c-1.01-5.1-1.91-10.18-2.69-15.22
	c-2.66-17.06-4.09-33.77-4.56-49.94c-0.14-5.06-0.19-10.08-0.15-15.03c0.1-15.8,1.08-31.01,2.68-45.46
	c0.56-5.02,1.19-9.96,1.89-14.79c2.2-15.41,5.05-29.8,8.18-42.93c1.22-5.08,2.47-9.98,3.75-14.67
	c11.35-41.8,24.39-67.61,24.39-67.61l28.3,14.88c-5.11,17.44-8.81,34.95-11.35,52.28c-0.75,5.1-1.4,10.17-1.95,15.22
	c-1.56,14.28-2.39,28.37-2.62,42.13c-0.08,5.11-0.09,10.16-0.02,15.16c0.21,15.71,1.16,30.89,2.59,45.32
	c0.5,5.06,1.06,10.03,1.67,14.89c2.27,18.13,5.24,34.83,8.38,49.59c1.09,5.13,2.2,10.03,3.31,14.67
	C287.65,447.022,295.31,467.002,295.31,467.002z"/>
<path style="fill:#947057;" d="M279.879,165.253l-16.227-8.535c-57.183,207.86,0.233,310.287,0.233,310.287h31.421
	C295.306,467.005,236.425,313.469,279.879,165.253z"/>
<g>
	<path style="fill:#85644E;" d="M268.53,217.532c-0.75,5.1-1.4,10.17-1.95,15.22c-7.61,0.79-14.75,1.09-21.21,1.09
		c-8.58,0-15.94-0.53-21.54-1.13c-0.13-0.01-0.26-0.03-0.39-0.06c1.22-5.08,2.47-9.98,3.75-14.67c9.57,0.93,23.83,1.52,40.2-0.41
		C267.77,217.532,268.16,217.512,268.53,217.532z"/>
	<path style="fill:#85644E;" d="M263.94,290.042c-9.68,1.29-18.75,1.77-26.84,1.77c-9.04,0-16.85-0.59-22.93-1.29
		c-0.27-0.03-0.54-0.08-0.8-0.15c0.56-5.02,1.19-9.96,1.89-14.79c0.21,0,0.42,0.02,0.63,0.04c11.03,1.27,28.26,2.16,48.07-0.74
		C263.88,279.992,263.87,285.042,263.94,290.042z"/>
	<path style="fill:#85644E;" d="M268.2,350.252c-0.18,0.04-0.37,0.06-0.56,0.07c-11.79,0.86-22.86,1.17-32.66,1.17
		c-9.36,0-17.57-0.28-24.14-0.63c-0.14-5.06-0.19-10.08-0.15-15.03c12.99,0.72,33.01,1.2,55.84-0.47
		C267.03,340.422,267.59,345.392,268.2,350.252z"/>
	<path style="fill:#85644E;" d="M279.89,414.512c-0.15,0.04-0.31,0.07-0.47,0.09c-11.89,1.58-23.04,2.35-35.46,2.35
		c-7.93,0-16.38-0.31-25.87-0.93c-1.01-5.1-1.91-10.18-2.69-15.22c24.88,1.78,42.16,1.52,61.18-0.96
		C277.67,404.972,278.78,409.872,279.89,414.512z"/>
</g>
<path style="fill:#C8DA52;" d="M434.351,120.054c-0.335-0.162-0.741-0.122-1.044,0.095c-3.502,2.514-6.056,4.36-8.724,6.348
	c-1.679,1.246-3.411,2.546-5.452,4.089c-0.573,0.433-1.39-0.031-1.311-0.744c0.631-5.681,1.003-9.158,1.622-15.17
	c0.042-0.404-0.213-0.791-0.604-0.903c-14.926-4.3-29.924-6.729-45.272-9.079c-0.304-0.046-0.615,0.08-0.805,0.322
	c-4.179,5.313-6.491,8.3-10.334,13.396c-0.415,0.55-1.287,0.373-1.455-0.294c-1.445-5.734-2.35-9.158-3.987-15.189
	c-0.093-0.341-0.391-0.597-0.743-0.629c-8.124-0.731-16.264-1.279-24.417-1.332c-0.729-0.005-1.082-0.885-0.555-1.388
	c5.498-5.241,11.016-10.457,16.237-16.011c0.275-0.292,0.301-0.747,0.07-1.075c-3.09-4.392-4.904-6.985-7.772-11.124
	c-0.415-0.599,0.104-1.404,0.82-1.273c0.448,0.082,0.883,0.162,1.306,0.239c4.763,0.871,8.041,1.533,13.356,2.644
	c0.392,0.082,0.807-0.075,1.039-0.402c12.081-17.029,17.791-36.393,21.226-56.841c0.097-0.576-0.321-1.12-0.903-1.172
	c-12.74-1.14-25.407-0.637-37.51,2.397c-8.279,2.061-16.281,5.323-23.849,10.047c-0.266,0.166-0.421,0.476-0.401,0.789
	c0.385,6.327,0.643,9.912,1.144,15.797c0.061,0.716-0.769,1.16-1.331,0.712c-3.963-3.156-6.441-5.118-10.665-8.438
	c-0.321-0.253-0.788-0.244-1.093,0.028c-10.509,9.344-19.622,19.65-28.824,30.265c-0.2,0.231-0.259,0.56-0.157,0.848
	c2.023,5.703,3.196,8.91,5.207,14.227c0.244,0.645-0.372,1.288-1.027,1.074c-5.004-1.636-12.89-3.926-15.624-3.959
	c-2.734-0.034-9.297,2.327-14.296,3.96c-0.655,0.214-1.27-0.429-1.027-1.074c2.007-5.315,3.181-8.527,5.207-14.227
	c0.102-0.288,0.044-0.618-0.157-0.849c-9.208-10.614-18.321-20.923-28.824-30.27c-0.306-0.272-0.772-0.28-1.094-0.028
	c-4.228,3.324-6.706,5.284-10.663,8.438c-0.562,0.448-1.393,0.004-1.331-0.712c0.502-5.884,0.759-9.468,1.137-15.797
	c0.019-0.313-0.136-0.622-0.402-0.788c-18.681-11.679-40.034-14.372-61.557-12.417c-0.473,0.043-0.813,0.485-0.734,0.953
	c3.436,20.548,9.155,40.016,21.317,57.118c0.196,0.276,0.547,0.408,0.878,0.339c5.844-1.225,9.225-1.892,14.766-2.904
	c0.717-0.131,1.236,0.676,0.82,1.275c-2.87,4.14-4.681,6.732-7.77,11.125c-0.231,0.328-0.205,0.783,0.07,1.075
	c3.625,3.855,7.393,7.545,11.197,11.196c0.514,0.493,0.188,1.353-0.523,1.385c-6.044,0.267-12.082,0.718-18.111,1.262
	c-0.354,0.032-0.653,0.29-0.746,0.633c-1.868,6.888-2.882,10.755-4.543,17.342c-0.168,0.667-1.039,0.844-1.454,0.295
	c-4.415-5.844-7.018-9.216-11.788-15.276c-0.189-0.24-0.498-0.366-0.8-0.32c-17.302,2.641-34.215,5.379-51.041,10.238
	c-0.393,0.113-0.649,0.503-0.606,0.91c0.716,6.885,1.136,10.811,1.862,17.358c0.079,0.715-0.741,1.182-1.315,0.747
	c-6.08-4.604-9.686-7.257-16.262-11.975c-0.254-0.182-0.596-0.216-0.878-0.081c-24.705,11.862-41.693,32.54-53.891,56.479
	c-0.216,0.423-0.023,0.947,0.415,1.131c23.902,10.042,48.181,16.967,74.257,15.499c0.337-0.019,0.636-0.245,0.753-0.561
	c2.664-7.16,4.212-11.169,6.936-17.937c0.273-0.677,1.234-0.686,1.52-0.014c2.57,6.043,4.105,9.687,6.769,16.071
	c0.154,0.37,0.552,0.59,0.946,0.514c10.66-2.059,21.109-4.828,31.608-7.436c0.805-0.2,1.351,0.798,0.753,1.372
	c-9.659,9.276-19.003,18.577-27.462,29.055c-0.253,0.314-0.243,0.771,0.018,1.079c3.719,4.382,5.891,6.925,9.429,11.039
	c0.466,0.542,0.056,1.383-0.658,1.352c-6.257-0.269-10.028-0.379-16.726-0.494c-0.315-0.005-0.62,0.164-0.774,0.439
	c-11.416,20.32-13.279,43.069-10.258,65.784c0.063,0.472,0.52,0.793,0.986,0.694c21.392-4.568,41.55-11.506,58.934-25.174
	c0.265-0.208,0.381-0.564,0.299-0.89c-1.56-6.191-2.411-9.748-3.736-15.644c-0.159-0.71,0.622-1.261,1.235-0.87
	c4.526,2.89,7.329,4.694,12.119,7.797c0.337,0.218,0.788,0.172,1.067-0.117c9.24-9.559,17.472-19.936,26.489-29.685
	c0.216-0.233,0.28-0.575,0.169-0.873c-2.164-5.821-3.365-9.142-5.304-14.695c-0.232-0.664,0.43-1.296,1.082-1.033
	c5.109,2.064,8.204,3.349,13.556,5.621c0.334,0.142,0.729,0.06,0.972-0.209c7.495-8.298,14.885-16.66,21.717-25.519
	c0.221-0.287,0.231-0.691,0.03-0.993c-3.278-4.922-5.155-7.758-8.22-12.425c-0.388-0.591,0.11-1.368,0.81-1.262
	c5.858,0.886,9.367,1.467,15.504,2.559c0.315,0.056,0.638-0.079,0.808-0.35c2.518-4.015,5.276-8.397,7.779-13.009
	c0.085-0.156,0.218-0.278,0.381-0.348c2.714-1.173,5.375-2.557,7.958-4.051c0.55,0.321,0.675,0.395,1.225,0.716
	c-0.437,11.262,4.381,23.257,8.278,33.067c0.119,0.3,0.415,0.492,0.738,0.493c5.556,0.011,8.764,0.056,14.011,0.203
	c0.708,0.02,1.062,0.873,0.575,1.388c-3.413,3.609-5.543,5.84-9.193,9.662c-0.25,0.262-0.314,0.661-0.148,0.984
	c4.63,9.017,9.84,17.688,15.147,26.315c0.19,0.309,0.565,0.461,0.919,0.379c5.047-1.16,8-1.808,12.767-2.814
	c0.689-0.146,1.232,0.595,0.886,1.209c-2.574,4.573-4.174,7.347-7.002,12.144c-0.162,0.274-0.16,0.622,0.01,0.891
	c6.425,10.174,12.066,20.777,18.723,30.82c0.224,0.338,0.667,0.465,1.04,0.308c4.663-1.969,7.439-3.136,11.821-4.949
	c0.674-0.279,1.35,0.4,1.067,1.072c-2.092,4.967-3.426,8.013-5.778,13.226c-0.139,0.307-0.088,0.679,0.135,0.932
	c5.034,5.712,10.585,10.623,16.539,14.926c9.642,6.979,20.333,12.365,31.582,17.018c0.543,0.225,1.17-0.065,1.349-0.625
	c6.297-19.773,8.29-40.341,1.505-60.279c-0.123-0.362-0.448-0.63-0.826-0.692c-5.353-0.873-8.624-1.375-13.367-2.019
	c-0.419-0.057-0.849-0.116-1.293-0.177c-0.708-0.097-0.961-0.997-0.407-1.449c3.731-3.047,6.072-4.97,10.02-8.244
	c0.31-0.257,0.402-0.706,0.21-1.06c-6.424-11.852-14.036-22.589-21.903-33.475c-0.183-0.253-0.499-0.386-0.809-0.347
	c-5.653,0.71-8.871,1.142-14.155,1.911c-0.681,0.099-1.178-0.639-0.829-1.233c2.543-4.325,4.083-7.006,6.717-11.658
	c0.173-0.306,0.145-0.694-0.078-0.966c-7.061-8.601-14.414-16.967-22.828-24.264c-0.277-0.24-0.686-0.271-1.001-0.084
	c-4.555,2.705-7.202,4.284-11.473,6.859c-0.6,0.362-1.353-0.152-1.237-0.843c0.904-5.345,1.405-8.621,2.218-14.377
	c0.046-0.327-0.097-0.656-0.375-0.835c-3.624-2.322-7.642-4.838-11.892-7.074c0.046-0.344,0.09-0.688,0.126-1.034
	c0.272,0.115,0.545,0.23,0.813,0.344c4.935-4.876,7.649-7.507,12.353-11.919c0.517-0.485,1.371-0.126,1.385,0.583
	c0.115,5.87,0.174,9.419,0.254,15.625c0.005,0.366,0.245,0.698,0.595,0.807c11.16,3.487,22.52,6.216,33.921,8.828
	c0.348,0.08,0.712-0.075,0.904-0.375c3.314-5.187,5.233-8.141,8.462-13.018c0.389-0.587,1.293-0.441,1.479,0.237
	c1.63,5.954,2.559,9.513,4.141,15.811c0.078,0.311,0.328,0.558,0.641,0.626c13.578,2.948,26.853,6.898,40.516,9.543
	c0.392,0.076,0.787-0.142,0.941-0.51c2.329-5.574,3.687-8.798,5.913-14.037c0.285-0.67,1.243-0.659,1.514,0.016
	c2.367,5.885,3.738,9.439,6.067,15.693c0.118,0.318,0.419,0.545,0.757,0.564c13.119,0.734,25.72-0.922,38.041-4.111
	c9.362-2.424,18.551-5.739,27.679-9.567c0.539-0.226,0.776-0.87,0.51-1.391C471.202,148.822,456.158,130.566,434.351,120.054z
	 M174.084,158.772c0.669,1.009,1.287,1.943,1.873,2.833c0.229,0.347,0.154,0.806-0.169,1.068c-1.134,0.917-2.262,1.843-3.385,2.775
	c-0.608,0.504-1.503-0.063-1.299-0.826c0.46-1.723,0.951-3.538,1.518-5.614C172.804,158.336,173.699,158.192,174.084,158.772z
	 M161.679,178.974c1.86-0.436,3.723-0.86,5.592-1.265c0.3-0.065,0.539-0.302,0.614-0.6c0.349-1.391,0.67-2.662,0.974-3.858
	c0.197-0.776,1.281-0.816,1.549-0.062c1.203,3.388,2.203,6.135,3.632,9.992c0.236,0.637-0.375,1.269-1.02,1.054
	c-4.401-1.466-7.445-2.456-11.393-3.699C160.842,180.289,160.878,179.161,161.679,178.974z M304.819,106.854
	c-0.286-0.635,0.313-1.314,0.979-1.111c3.326,1.014,5.819,1.79,8.601,2.68c0.41,0.131,0.651,0.563,0.542,0.98
	c-0.652,2.491-1.277,4.898-2.066,7.955c-0.172,0.667-1.051,0.83-1.45,0.269C309.685,115.183,305.528,108.426,304.819,106.854z"/>
<path style="fill:#DBA67F;" d="M185.596,472.888H490c0,0-63.176-59.151-152.202-59.151S185.596,472.888,185.596,472.888z"/>
<path style="fill:#BD8F6D;" d="M337.798,413.737c-5.309,0-10.523,0.216-15.641,0.612c80.693,6.239,136.561,58.539,136.561,58.539
	H490C490,472.888,426.824,413.737,337.798,413.737z"/>
<path style="fill:#F2C09A;" d="M33.394,473.002h304.404c0,0-63.176-48.028-152.202-48.028S33.394,473.002,33.394,473.002z"/>
<g>
	<path style="fill:#90C23E;" d="M377.518,15.734c-3.435,20.448-9.145,39.812-21.226,56.84c-0.232,0.326-0.647,0.483-1.039,0.402
		c-5.315-1.111-8.593-1.772-13.356-2.644c-0.01-0.01-0.021-0.01-0.021-0.01s1.793-35.002-2.771-53.363
		c12.102-3.034,24.77-3.537,37.51-2.397C377.196,14.614,377.614,15.157,377.518,15.734z"/>
	<path style="fill:#90C23E;" d="M481.475,171.343c-9.128,3.828-18.318,7.143-27.68,9.567c-5.398-33.344-29.247-54.414-29.247-54.414
		c2.669-1.988,5.224-3.836,8.729-6.351c0.299-0.215,0.701-0.254,1.032-0.094c21.811,10.512,36.857,28.769,47.675,49.903
		C482.25,170.474,482.013,171.117,481.475,171.343z"/>
</g>
<path style="fill:#875450;" d="M496.553,498.001H15.447C6.916,498.001,0,491.085,0,482.554l0,0c0-8.531,6.916-15.447,15.447-15.447
	h481.107c8.531,0,15.447,6.916,15.447,15.447l0,0C512,491.085,505.084,498.001,496.553,498.001z"/>
<path style="fill:#784B48;" d="M496.547,467.107h-30.912c8.534,0,15.453,6.916,15.453,15.447l0,0
	c0,8.531-6.918,15.447-15.453,15.447h30.912c8.534,0,15.453-6.916,15.453-15.447l0,0C512,474.023,505.082,467.107,496.547,467.107z"
	/>
<g>
	<path style="fill:#90C23E;" d="M375.428,318.166c-11.25-4.653-21.942-10.04-31.584-17.019
		c14.01-26.095,18.997-42.108,20.243-46.598c4.748,0.645,8.021,1.147,13.384,2.022c0.367,0.06,0.683,0.32,0.803,0.672
		c6.792,19.944,4.799,40.518-1.5,60.298C376.596,318.101,375.97,318.391,375.428,318.166z"/>
	<ellipse style="fill:#90C23E;" cx="258.64" cy="126.541" rx="36.06" ry="36.04"/>
</g>
<g>
	<path style="fill:#7CA836;" d="M258.637,90.502c-5.354,0-10.431,1.176-15,3.269c12.422,5.691,21.056,18.22,21.056,32.774
		c0,14.553-8.634,27.083-21.056,32.774c4.569,2.093,9.646,3.269,15,3.269c19.913,0,36.056-16.137,36.056-36.042
		C294.694,106.639,278.551,90.502,258.637,90.502z"/>
	<ellipse style="fill:#7CA836;" cx="220.06" cy="167.911" rx="36.06" ry="36.04"/>
	<ellipse style="fill:#7CA836;" cx="291.85" cy="167.911" rx="36.06" ry="36.04"/>
</g>
<g>
	<path style="fill:#6D9430;" d="M291.845,131.865c-5.354,0-10.431,1.176-15,3.269c12.423,5.691,21.056,18.22,21.056,32.774
		c0,14.553-8.634,27.083-21.056,32.774c4.569,2.093,9.646,3.269,15,3.269c19.913,0,36.056-16.137,36.056-36.042
		C327.901,148.001,311.758,131.865,291.845,131.865z"/>
	<path style="fill:#6D9430;" d="M219.732,131.865c-5.354,0-10.431,1.176-15,3.269c12.423,5.691,21.056,18.22,21.056,32.774
		c0,14.553-8.634,27.083-21.056,32.774c4.569,2.093,9.646,3.269,15,3.269c19.913,0,36.056-16.137,36.056-36.042
		C255.789,148.001,239.646,131.865,219.732,131.865z"/>
</g>
<g>
</g>
<g>
</g>
<g>
</g>
<g>
</g>
<g>
</g>
<g>
</g>
<g>
</g>
<g>
</g>
<g>
</g>
<g>
</g>
<g>
</g>
<g>
</g>
<g>
</g>
<g>
</g>
<g>
</g>
</svg>
